<svg width="16" height="19" viewBox="0 0 16 19" fill="none" xmlns="http://www.w3.org/2000/svg">
<mask id="mask0_2073:1200" style="mask-type:alpha" maskUnits="userSpaceOnUse" x="1" y="3" width="14" height="14">
<path fill-rule="evenodd" clip-rule="evenodd" d="M8.00004 3.34143C4.32004 3.34143 1.33337 6.3281 1.33337 10.0081C1.33337 13.6881 4.32004 16.6748 8.00004 16.6748C11.68 16.6748 14.6667 13.6881 14.6667 10.0081C14.6667 6.3281 11.68 3.34143 8.00004 3.34143ZM8.00004 10.6748C7.63337 10.6748 7.33337 10.3748 7.33337 10.0081V7.34143C7.33337 6.97476 7.63337 6.67476 8.00004 6.67476C8.36671 6.67476 8.66671 6.97476 8.66671 7.34143V10.0081C8.66671 10.3748 8.36671 10.6748 8.00004 10.6748ZM7.33337 12.0081V13.3414H8.66671V12.0081H7.33337Z" fill="black"/>
</mask>
<g mask="url(#mask0_2073:1200)">
<rect y="2.00806" width="16" height="16" fill="#287D3C"/>
</g>
</svg>
